#!OML:ASF E:/inclinewalkrobotboard/Project1/Captureday1/Session1/subject1.ASF
:FULLY-SPECIFIED
:DEGREES
213
root 0 0 0 1.427717896433673 -3.5438157298312563 1.8844466740626638
lowerback 11.967309150827752 0.8958048810615284 -0.09100300239322301
upperback -4.43567093810937 1.1238929708688046 -0.6296509876754991
thorax -11.555402716236784 0.5162197560798822 -0.8736199669282513
lowerneck -6.09419719392212 1.6529781707560132 4.62580701613796
upperneck 18.44743015277564 3.1575000478376665 -8.270562752249926
head 6.7794796596222575 1.163705448750871 -3.189792159297113
rclavicle -1.742938466314647E-16 -9.704423752609378E-16
rhumerus 22.22979715709591 15.952082546993418 -46.539394103407815
rradius 74.31594108253533
rwrist 27.893752663497438
rhand -34.85736668506661 -59.76630664026732
rfingers 7.12502
rthumb -8.017259837500998 -89.578761339204
lclavicle -1.7283564002500656E-16 -9.490093703862406E-16
lhumerus 22.786187111974737 -12.79391132120644 43.63691490320613
lradius 71.31517122760556
lwrist -23.633135711840342
lhand -45.33423621712553 -73.18395008120356
lfingers 7.12502
lthumb -18.091600300009496 -43.96601842975703
rfemur -25.59272236100169 -2.1496122997930813 16.69452375786602
rtibia 54.68779358923929
rfoot -27.313603110654668 -16.461315215982545
rtoes -17.66754766502045
lfemur -21.80327309649755 1.2317730388882833 -18.180457170000352
ltibia 48.64058086756572
lfoot -23.729644379260527 -3.603608605884427
ltoes -15.420408326607781
214
root 0 0 0 1.4276742135449876 -3.5425388320689932 1.8863309468933716
lowerback 11.96729124495192 0.8950546403481359 -0.0930040182384686
upperback -4.435551612530767 1.122659602816633 -0.6296924879242342
thorax -11.555377214454396 0.5156685099553205 -0.8723586403538269
lowerneck -6.094091521599179 1.6531948837134254 4.625613621358697
upperneck 18.44735890037443 3.1577165852220257 -8.270714728106142
head 6.779405774567951 1.1637952223435053 -3.1897420125966827
rclavicle -1.7428115402937645E-16 -9.70437922094696E-16
rhumerus 22.229504642201995 15.951868168186648 -46.53957542904689
rradius 74.31567855790693
rwrist 27.893625415186147
rhand -34.857273425215084 -59.765857298437865
rfingers 7.12502
rthumb -8.017174000445621 -89.5783036292435
lclavicle -1.7285223951454548E-16 -9.490412438992116E-16
lhumerus 22.78594660467262 -12.79384628187968 43.63707583429595
lradius 71.31497718706474
lwrist -23.633010849778472
lhand -45.334155947350595 -73.18352956410412
lfingers 7.12502
lthumb -18.09153345062533 -43.96566457334714
rfemur -25.603064876458188 -2.1544946379884493 16.687251982204565
rtibia 54.69910803006985
rfoot -27.326282202157273 -16.468253250316426
rtoes -17.682045319732193
lfemur -21.79392817508021 1.2294896092376062 -18.182236556083975
ltibia 48.62772414506424
lfoot -23.719630220642244 -3.602983112433125
ltoes -15.412724448485868
215
root 0 0 0 1.4266197844800335 -3.538416783130403 1.8909977650256036
lowerback 11.966898387529028 0.8926341930719701 -0.09876672301658906
upperback -4.434026640730595 1.118811422410963 -0.6292215729844578
thorax -11.55379756119601 0.5139264792203337 -0.8680137667484692
lowerneck -6.096264821260011 1.6527487261686085 4.623402608378156
upperneck 18.44740672880789 3.1567178628670898 -8.269064433736983
head 6.779704560485389 1.163381301129347 -3.1888458856237496
rclavicle -1.749354813541729E-16 -9.706875274124988E-16
rhumerus 22.21465723383097 15.942604547635602 -46.54885868632495
rradius 74.30253476470763
rwrist 27.886935378920104
rhand -34.85245735492747 -59.74387268702498
rfingers 7.12502
rthumb -8.012438558427858 -89.55647456018048
lclavicle -1.732549051528145E-16 -9.483718859393023E-16
lhumerus 22.786157331960677 -12.79365697376289 43.637172236704345
lradius 71.31495685057895
lwrist -23.632690070913565
lhand -45.33414496871005 -73.18218615186466
lfingers 7.12502
lthumb -18.091214511629772 -43.96559085515803
rfemur -25.59422238967802 -2.150079970826261 16.693730654914447
rtibia 54.688727056124804
rfoot -27.31462919765955 -16.462513452539184
rtoes -17.669272964708576
lfemur -21.806182343457323 1.2328007526863376 -18.180206515035035
ltibia 48.64596167134008
lfoot -23.732901337014468 -3.604539300137523
ltoes -15.424025293129354
216
root 0 0 0 1.426860617014365 -3.5387224321392767 1.8909430871533852
lowerback 11.967032148093063 0.8928245508493922 -0.09843418680854932
upperback -4.43437388959579 1.1191025995284605 -0.6293959457278654
thorax -11.554237214610644 0.5140659675842606 -0.868462966509996
lowerneck -6.0955340188850595 1.653021825505763 4.623948025531524
upperneck 18.447361038731554 3.157137366984395 -8.269669261046502
head 6.779575188421924 1.1635512044938099 -3.189094632314599
rclavicle -1.744519715188919E-16 -9.704767852364346E-16
rhumerus 22.223362462806584 15.947836954184828 -46.54328477826087
rradius 74.3099625629601
rwrist 27.890847617133346
rhand -34.85526201676763 -59.756225308864735
rfingers 7.12502
rthumb -8.015191195025666 -89.56873119730756
lclavicle -1.7276091587879948E-16 -9.49023907094603E-16
lhumerus 22.7911437336091 -12.79516979790543 43.63342962996458
lradius 71.31907103694122
lwrist -23.635766384369685
lhand -45.33593367692616 -73.19260239157727
lfingers 7.12502
lthumb -18.09321900791435 -43.97456363173549
rfemur -25.595373637160534 -2.150752778352161 16.69277911063609
rtibia 54.69038264965555
rfoot -27.316364153600997 -16.46289599223222
rtoes -17.670868322573256
lfemur -21.80289398938318 1.231973737528792 -18.180626350877585
ltibia 48.64184972382495
lfoot -23.72972344999495 -3.604366667845863
ltoes -15.421363745907833
